<svg xmlns="http://www.w3.org/2000/svg" fill="none" viewBox="0 0 348 348"><path stroke="#000" stroke-width="2" d="M5.079 5.776h336.913v337.67H5.08z"/><path stroke="#000" stroke-width="2" d="M282.734 40.554c0-8.376 6.966-15.165 15.56-15.165 4.126 0 8.084 1.597 11.001 4.441 2.918 2.844 4.558 6.702 4.558 10.724 0 8.376-6.966 15.165-15.56 15.165-8.593 0-15.559-6.79-15.559-15.165z"/><path opacity=".998" stroke="#010101" stroke-width="2.427" d="M39.237 65.849h97.573v97.573H39.237z"/><path opacity=".998" stroke="#010101" stroke-width="2.444" d="M63.459 74.513h47.082v2.456H63.459z"/><path d="M91.221 119.416l9.094 13.562q3.781 5.625 5.594 7.125 1.844 1.47 4.656 1.625v1.157H92.378v-1.157q1.812-.03 2.687-.375.656-.28 1.063-.843.437-.594.437-1.188 0-.719-.281-1.437-.219-.532-1.719-2.75l-7.187-10.875-8.875 11.375q-1.407 1.812-1.688 2.437-.281.594-.281 1.25 0 1 .844 1.656.843.657 3.218.75v1.157h-15.03v-1.157q1.593-.156 2.75-.656 1.937-.812 3.687-2.187 1.75-1.375 4-4.219l10-12.625-8.344-12.219q-3.406-4.969-5.781-6.5-2.375-1.562-5.469-1.656v-1.156h19.594v1.156q-2.5.094-3.438.812-.906.72-.906 1.594 0 1.156 1.5 3.375l6.5 9.719 7.531-9.531q1.313-1.688 1.594-2.313.312-.625.312-1.281 0-.656-.375-1.156-.468-.657-1.187-.907-.719-.28-2.969-.312v-1.156h15.031v1.156q-1.78.094-2.906.562-1.687.72-3.094 1.938-1.406 1.219-3.968 4.5z" aria-label="X" font-weight="400" font-size="64" font-family="Times New Roman" letter-spacing="1" word-spacing="1" fill="red"/><path opacity=".998" stroke="#010101" stroke-width="2.427" d="M183.237 65.849h97.573v97.573h-97.573z"/><path opacity=".998" stroke="#010101" stroke-width="2.444" d="M207.459 74.513h47.082v2.456h-47.082z"/><path d="M238.378 128.697H221.97l-2.875 6.688q-1.062 2.468-1.062 3.687 0 .969.906 1.719.938.719 4 .937v1.157h-13.344v-1.157q2.657-.468 3.438-1.218 1.594-1.5 3.531-6.094l14.906-34.875h1.094l14.75 35.25q1.781 4.25 3.219 5.531 1.469 1.25 4.062 1.406v1.157h-16.718v-1.157q2.531-.125 3.406-.843.906-.719.906-1.75 0-1.375-1.25-4.344zm-.875-2.312l-7.188-17.125-7.375 17.125z" aria-label="A" font-weight="400" font-size="64" font-family="Times New Roman" letter-spacing="1" word-spacing="1" fill="#ffd100"/><path opacity=".998" stroke="#010101" stroke-width="2.427" d="M39.237 207.422h97.573v97.573H39.237z"/><path opacity=".998" stroke="#010101" stroke-width="2.444" d="M63.459 216.086h47.082v2.456H63.459z"/><path d="M110.534 242.083v1.156q-2.25.406-3.406 1.437-1.657 1.532-2.938 4.688L89.41 285.426h-1.156l-15.875-36.53q-1.219-2.813-1.719-3.438-.781-.97-1.938-1.5-1.125-.563-3.062-.72v-1.155h17.312v1.156q-2.937.281-3.812 1t-.875 1.844q0 1.562 1.437 4.875L90.503 275.8l10-24.53q1.468-3.626 1.468-5.032 0-.906-.906-1.719-.906-.844-3.062-1.187-.157-.032-.532-.094v-1.156z" aria-label="V" font-weight="400" font-size="64" font-family="Times New Roman" letter-spacing="1" word-spacing="1" fill="#ffd100"/><path opacity=".998" stroke="#010101" stroke-width="2.427" d="M183.237 207.422h97.573v97.573h-97.573z"/><path opacity=".998" stroke="#010101" stroke-width="2.444" d="M207.459 216.086h47.082v2.456h-47.082z"/></svg>